<?xml version="1.0" encoding="UTF-8"?>
<svg width="185px" height="78px" viewBox="0 0 185 78" version="1.1" xmlns="http://www.w3.org/2000/svg" xmlns:xlink="http://www.w3.org/1999/xlink">
    <!-- Generator: Sketch 45 (43475) - http://www.bohemiancoding.com/sketch -->
    <title>logo-horizontal-black</title>
    <desc>Created with Sketch.</desc>
    <defs></defs>
    <g id="Assets" stroke="none" stroke-width="1" fill="none" fill-rule="evenodd">
        <g id="Artboard" transform="translate(-468.000000, -427.000000)" fill="#000000">
            <g id="logo-horizontal-copy" transform="translate(468.000000, 427.000000)">
                <path d="M181.470102,58.2789866 L184.51122,58.2789866 L184.51122,45.7261655 L181.470102,45.7261655 L181.470102,58.2789866 Z M169.084457,58.2789866 L179.006243,58.2789866 L179.006243,55.7772082 L172.749281,55.7772082 L178.630251,47.6458795 L178.630251,45.7283619 L169.55113,45.7283619 L169.55113,48.2301403 L174.896863,48.2301403 L169.084457,56.253842 L169.084457,58.2789866 Z M163.581691,58.2789866 L166.620598,58.2789866 L166.620598,45.7261655 L163.581691,45.7261655 L163.581691,58.2789866 Z M152.105064,58.2789866 L155.146182,58.2789866 L155.146182,53.3786639 L160.547208,53.3786639 L160.547208,51.1953736 L155.146182,51.1953736 L155.146182,48.0895662 L160.938683,48.0895662 L160.938683,45.7283619 L152.105064,45.7283619 L152.105064,58.2789866 Z M140.63286,58.2789866 L143.671766,58.2789866 L143.671766,53.3786639 L149.070581,53.3786639 L149.070581,51.1953736 L143.671766,51.1953736 L143.671766,48.0895662 L149.464267,48.0895662 L149.464267,45.7283619 L140.63286,45.7283619 L140.63286,58.2789866 Z M131.571433,58.5096158 C134.393591,58.5096158 137.361722,57.1258403 137.361722,52.7416879 L137.361722,45.7283619 L134.378109,45.7283619 L134.378109,52.6845797 C134.378109,54.9227817 133.482361,56.042981 131.571433,56.042981 C129.6406,56.042981 128.762546,54.975497 128.762546,53.0579794 L128.762546,45.7283619 L125.690463,45.7283619 L125.690463,53.1656064 C125.690463,57.2312708 128.658595,58.5096158 131.571433,58.5096158 L131.571433,58.5096158 Z M115.64482,58.2789866 L117.111192,58.2789866 L117.111192,45.7261655 L115.64482,45.7261655 L115.64482,58.2789866 Z M106.063639,58.2789866 L113.017294,58.2789866 L113.017294,57.0182133 L107.530011,57.0182133 L107.530011,45.7283619 L106.063639,45.7283619 L106.063639,58.2789866 Z M98.4331966,58.4920441 C100.129588,58.4920441 101.166885,58.243843 102.259476,57.9231586 L102.259476,52.1003189 L100.773199,52.1003189 L100.773199,56.9852662 C100.308737,57.0885003 99.6850314,57.2312708 98.7538963,57.2312708 C95.85654,57.2312708 93.4258571,55.649813 93.4258571,51.9048331 C93.4258571,48.247712 95.7680711,46.8265965 98.397809,46.8265965 C100.184881,46.8265965 100.952348,47.1670492 101.59596,47.3779102 L102.027245,46.187424 C101.507491,45.9765629 100.596261,45.5504479 98.3602097,45.5504479 C94.230924,45.5504479 91.8909217,48.1225133 91.8909217,52.0827471 C91.8909217,55.79478 94.2685233,58.4920441 98.4331966,58.4920441 L98.4331966,58.4920441 Z M81.9359592,58.2789866 L89.4248513,58.2789866 L89.4248513,57.073125 L83.4001195,57.073125 L83.4001195,52.5813456 L88.6197843,52.5813456 L88.6197843,51.3732876 L83.4001195,51.3732876 L83.4001195,46.9166517 L89.0134709,46.9166517 L89.0134709,45.7283619 L81.9359592,45.7283619 L81.9359592,58.2789866 Z M69.7626392,57.073125 L69.7626392,46.9342235 L71.6580853,46.9342235 C75.0353854,46.9342235 77.269225,48.6013435 77.269225,52.1530341 C77.269225,55.4213802 75.3052155,57.073125 72.0141726,57.073125 L69.7626392,57.073125 Z M68.313961,58.2789866 L71.8173293,58.2789866 C76.0372956,58.2789866 78.7179032,56.361469 78.7179032,51.9597449 C78.7179032,47.8765087 75.787371,45.7283619 71.7111666,45.7283619 L68.313961,45.7283619 L68.313961,58.2789866 Z M175.927526,39.211438 L184.632865,39.211438 L184.632865,36.8502337 L178.966432,36.8502337 L178.966432,34.0080026 L183.827798,34.0080026 L183.827798,31.8071405 L178.966432,31.8071405 L178.966432,29.0198212 L184.223696,29.0198212 L184.223696,26.6586169 L175.927526,26.6586169 L175.927526,39.211438 Z M169.438332,39.211438 L172.477239,39.211438 L172.477239,26.6586169 L169.438332,26.6586169 L169.438332,39.211438 Z M158.392991,32.7648011 L158.392991,29.037393 L159.859363,29.037393 C161.484979,29.037393 162.004733,29.5689385 162.004733,30.8297118 C162.004733,32.0201981 161.235054,32.7648011 159.430288,32.7648011 L158.392991,32.7648011 Z M166.563093,39.4398708 L167.242092,37.1313817 C165.866401,36.7777502 165.079027,36.2813482 164.382335,35.5367451 L163.095112,34.1507731 C164.45311,33.3842054 165.13432,32.1629685 165.13432,30.7594248 C165.13432,27.9545337 163.095112,26.6586169 160.253049,26.6586169 L155.33639,26.6586169 L155.33639,39.211438 L158.392991,39.211438 L158.392991,34.8778044 L159.324126,34.8778044 C159.554145,34.8778044 159.788587,34.8778044 160.000913,34.8602326 L161.431897,36.5119774 C162.756719,38.0407199 164.097023,39.319065 166.563093,39.4398708 L166.563093,39.4398708 Z M143.718213,39.211438 L152.425764,39.211438 L152.425764,36.8502337 L146.757119,36.8502337 L146.757119,34.0080026 L151.618485,34.0080026 L151.618485,31.8071405 L146.757119,31.8071405 L146.757119,29.0198212 L152.012172,29.0198212 L152.012172,26.6586169 L143.718213,26.6586169 L143.718213,39.211438 Z M132.814421,39.211438 L141.342823,39.211438 L141.342823,36.8326619 L135.853328,36.8326619 L135.853328,26.6586169 L132.814421,26.6586169 L132.814421,39.211438 Z M121.912841,39.211438 L130.439031,39.211438 L130.439031,36.8326619 L124.951748,36.8326619 L124.951748,26.6586169 L121.912841,26.6586169 L121.912841,39.211438 Z M111.849505,33.3512583 L113.33357,28.5234192 L114.603099,33.3512583 L111.849505,33.3512583 Z M106.632051,39.211438 L109.668746,39.211438 L111.046649,35.5367451 L115.317485,35.5367451 L116.514027,39.211438 L119.661308,39.211438 L115.408166,26.6586169 L111.493417,26.6586169 L106.632051,39.211438 Z M100.357395,39.3871555 C101.894542,39.3871555 103.093296,39.211438 104.522068,38.6601242 L104.522068,32.9976268 L101.483162,32.9976268 L101.483162,36.8502337 C101.233237,36.8502337 100.965619,36.8678054 100.678095,36.8678054 C98.3734801,36.8678054 96.5134215,35.6070321 96.5134215,32.8350881 C96.5134215,30.067537 98.1943305,28.967106 100.448076,28.967106 C101.735298,28.967106 102.29044,29.1252517 103.486982,29.4283645 L104.289837,27.2428777 C103.290139,26.8365309 102.29044,26.4807029 100.501157,26.4807029 C95.9051979,26.4807029 93.4214336,28.4685075 93.4214336,33.0130021 C93.4214336,37.3642075 96.1551225,39.3871555 100.357395,39.3871555 L100.357395,39.3871555 Z M78.049963,39.211438 L85.5410667,39.211438 L85.5410667,38.00338 L79.5163349,38.00338 L79.5163349,33.5116006 L84.7359998,33.5116006 L84.7359998,32.3035426 L79.5163349,32.3035426 L79.5163349,27.8469067 L85.1296864,27.8469067 L85.1296864,26.6586169 L78.049963,26.6586169 L78.049963,39.211438 Z M68.3803127,39.211438 L75.3339679,39.211438 L75.3339679,37.9506647 L69.8466846,37.9506647 L69.8466846,26.6586169 L68.3803127,26.6586169 L68.3803127,39.211438 Z M37.1530042,3.14761128 C34.9633991,1.62106523 30.6947749,0.757852863 27.1737128,0.757852863 C19.6162574,0.757852863 12.5144168,3.10587837 7.55352346,7.80412585 C2.53291363,12.6758944 0.0226087178,19.1203348 0.0226087178,27.1396436 C0.0226087178,27.9830878 -0.0282608972,38.3196715 0.0226087178,39.1279722 L11.4151908,39.1279722 C11.397497,38.4338879 11.3820149,28.2115206 11.3820149,27.4844893 C11.4395197,11.4436752 17.3890529,1.65840521 28.0628252,1.8297298 C33.1409398,1.91099916 35.0341742,3.67696034 36.3390904,4.68733614 L37.1530042,3.14761128 Z M52.8119988,39.1543298 L52.8119988,40.2657432 C50.0031113,40.5293195 47.6962849,41.4606224 47.6962849,45.5548409 C47.6962849,45.723969 47.6697442,57.0994826 47.6697442,57.0994826 C47.6697442,75.7277374 35.9409804,77.6210937 28.9696314,77.6210937 C21.9252956,77.6210937 10.2695186,75.7277374 10.2695186,57.0994826 L10.2695186,43.626341 L11.3798032,43.626341 L11.3798032,58.2548254 C11.3798032,65.7667498 14.8522074,75.4663575 23.8649761,75.4663575 C31.2499172,75.4663575 36.3523607,71.2491368 36.3523607,60.7631931 L36.3169732,39.1543298 L52.8119988,39.1543298 Z" id="logo"></path>
            </g>
        </g>
    </g>
</svg>